<svg version="1.1" id="Layer_1" xmlns="http://www.w3.org/2000/svg" xmlns:xlink="http://www.w3.org/1999/xlink" x="0px" y="0px"
	 width="100%" viewBox="0 0 496 496" enable-background="new 0 0 496 496" xml:space="preserve">
<path fill="#000000" opacity="1.000000" stroke="none" 
	d="
M325.282715,429.656799 
	C323.109253,426.135590 321.863190,422.458862 319.401703,419.683411 
	C317.377808,420.106995 316.462799,421.200836 315.707123,422.899750 
	C320.301025,426.619904 320.297180,431.239960 317.473175,436.404388 
	C322.202606,439.023590 326.087280,442.094849 327.448792,447.613678 
	C329.394440,455.500061 326.836365,461.992584 319.496277,465.431427 
	C311.911713,468.984772 303.305450,469.055267 295.510712,472.029266 
	C293.822662,472.673340 292.720673,471.530762 292.198364,469.862549 
	C291.686279,468.227020 292.494812,467.378143 293.843842,466.727783 
	C295.168732,466.089081 296.457520,465.375549 297.573212,464.793457 
	C297.883453,463.280792 296.886047,462.685760 296.396484,461.873993 
	C290.355011,451.856628 293.792999,442.291626 304.860077,438.278168 
	C308.290100,437.034271 313.952667,436.649445 312.178162,431.559052 
	C310.466766,426.649811 305.649139,430.065552 302.178864,430.687836 
	C299.567291,431.156189 297.033447,432.051971 294.424805,432.544312 
	C288.282318,433.703613 283.580688,431.894562 280.916473,427.506958 
	C277.772583,422.329376 277.736847,416.164795 281.852905,411.664612 
	C289.406708,403.405914 299.272400,400.029480 310.239136,401.060516 
	C317.143250,401.709595 319.659393,405.701752 320.733734,415.076385 
	C325.649567,413.095490 327.118317,416.603546 328.903473,420.069641 
	C332.258942,426.584656 335.826202,432.992249 339.384308,439.400665 
	C342.631287,445.248657 346.446350,446.933899 351.588867,444.953064 
	C358.181519,442.413635 361.299072,437.573761 359.843842,431.484192 
	C357.680084,422.429962 351.864532,415.069061 347.999390,406.796295 
	C346.996521,404.649811 345.550293,402.712250 348.756836,400.991089 
	C351.553864,399.489746 353.154510,399.888031 354.690613,402.808197 
	C360.351837,413.570099 366.277008,424.192932 371.980896,434.932861 
	C372.944183,436.746613 375.167969,438.677917 372.111145,440.933868 
	C369.188904,443.090454 367.584595,441.186951 365.245514,438.646271 
	C363.138092,445.322235 358.945435,449.478607 352.979431,451.899902 
	C345.524567,454.925446 339.495972,453.599701 335.037201,446.926483 
	C331.442657,441.546661 328.626282,435.646942 325.282715,429.656799 
M300.591980,408.150391 
	C295.845917,409.341919 291.301239,410.956787 288.105682,414.939392 
	C286.301270,417.188171 285.852356,419.663116 287.309570,422.378815 
	C288.365845,424.347321 289.986816,425.711029 292.074585,425.353119 
	C297.968475,424.342804 303.892761,423.218079 309.223907,420.310486 
	C312.420471,418.567108 313.387970,415.580322 312.574615,412.178253 
	C311.751923,408.737061 309.027771,407.517456 305.793610,407.404694 
	C304.325043,407.353455 302.841125,407.742950 300.591980,408.150391 
M302.042236,455.356140 
	C304.718628,460.987946 307.273132,462.638306 312.374969,461.543304 
	C316.351013,460.689880 319.520966,458.673157 319.825714,454.090027 
	C320.089447,450.123993 319.513550,446.258179 315.684601,444.125793 
	C312.237976,442.206268 308.575348,442.764557 305.264526,444.732330 
	C301.431763,447.010284 300.641113,450.529541 302.042236,455.356140 
z"/>
<path fill="#000000" opacity="1.000000" stroke="none" 
	d="
M378.843750,65.112099 
	C382.773163,67.950706 386.466339,70.508247 390.084625,73.167686 
	C391.588959,74.273361 393.927979,75.105156 392.278046,77.797447 
	C390.750977,80.289291 388.915009,79.146080 387.082397,78.317291 
	C386.185699,77.911758 385.283508,77.518402 384.440948,77.144867 
	C384.057648,77.426064 383.629333,77.571106 383.571594,77.806877 
	C380.274078,91.276878 369.881927,95.514534 358.243652,88.107300 
	C357.260437,87.481544 356.340363,86.753792 355.341675,86.155754 
	C353.008118,84.758377 351.090057,85.838165 349.602600,87.528763 
	C347.912415,89.449715 349.373138,91.027222 350.822235,92.162872 
	C353.305573,94.109001 355.938873,95.870407 358.564026,97.627502 
	C365.023041,101.950699 366.961273,105.015121 367.616028,112.214226 
	C369.410126,112.200554 370.026947,110.622253 370.947144,109.592949 
	C378.607971,101.023582 386.233856,92.422554 393.812134,83.780090 
	C395.739502,81.582047 397.347595,79.945488 400.309631,82.650154 
	C403.019440,85.124489 401.899658,86.796494 400.029053,88.885208 
	C392.473785,97.321465 384.895691,105.740860 377.524292,114.336517 
	C374.386902,117.994972 371.619843,121.274910 367.160431,114.695305 
	C362.937378,121.713654 357.280365,124.919533 349.712738,123.277710 
	C341.110138,121.411339 333.986023,116.939445 328.541046,110.056328 
	C325.587952,106.323242 324.472015,101.967911 326.798889,97.431519 
	C329.120544,92.905197 332.808868,90.423187 338.080872,90.680237 
	C338.888428,90.719612 339.704895,90.576477 340.788696,90.498123 
	C341.042816,85.669991 342.878815,82.067078 347.867157,80.870010 
	C349.489563,80.480690 349.833221,79.198288 349.559052,77.739540 
	C348.068909,69.811790 351.319550,63.858795 358.019775,60.226646 
	C364.906311,56.493511 371.238678,59.352222 377.023529,63.614239 
	C377.559448,64.009094 378.060211,64.451706 378.843750,65.112099 
M335.842865,98.302238 
	C333.875854,100.522751 332.596130,102.821182 334.090759,105.923195 
	C336.564117,111.056343 347.008179,117.139717 352.685425,116.664337 
	C355.865417,116.398064 357.801147,114.614433 358.992706,111.814919 
	C360.267548,108.819740 358.297668,107.008286 356.332855,105.556465 
	C352.613922,102.808517 348.739166,100.254257 344.803589,97.822670 
	C342.104645,96.155128 339.199890,95.870926 335.842865,98.302238 
M359.342346,81.033287 
	C360.103302,81.666138 360.809814,82.382774 361.634155,82.918053 
	C366.446167,86.042702 370.887115,85.160591 374.058441,80.497215 
	C377.478668,75.467819 376.706879,70.953033 371.843903,67.656960 
	C368.241089,65.215012 364.702026,64.393547 361.042755,67.705627 
	C356.847839,71.502579 356.106964,75.362595 359.342346,81.033287 
z"/>
<path fill="#000000" opacity="1.000000" stroke="none" 
	d="
M454.287231,190.062866 
	C462.779846,188.825455 470.839417,187.671021 478.905579,186.564575 
	C480.877136,186.294144 483.726624,184.742844 484.083649,188.159439 
	C484.441193,191.580948 487.634247,195.679047 482.703522,198.452942 
	C475.013367,202.779236 467.302063,207.067917 459.614471,211.398788 
	C453.436279,214.879349 447.279999,218.398819 440.460388,222.272293 
	C446.049011,224.963516 451.359711,225.414612 456.432709,226.626892 
	C466.615387,229.060272 476.805481,231.503281 487.077759,233.504791 
	C492.611847,234.583084 491.830780,238.779221 492.188782,242.322754 
	C492.588806,246.282257 489.284332,245.980804 486.685852,246.370026 
	C470.257080,248.830887 453.828003,251.290787 437.412140,253.835571 
	C434.778503,254.243835 432.456268,254.848724 431.730042,251.149734 
	C430.978516,247.321991 432.872314,246.199951 436.206360,245.736801 
	C450.751923,243.716171 465.280121,241.570435 481.037964,239.293350 
	C465.466644,235.788147 451.067352,232.546936 436.668182,229.305176 
	C435.208832,228.976624 433.757751,228.606003 432.289642,228.323334 
	C430.032776,227.888824 428.174500,227.127411 427.753601,224.455933 
	C427.317047,221.684891 428.620728,220.201599 430.922760,218.935089 
	C442.592010,212.515015 454.205231,205.992889 465.823608,199.480682 
	C467.694336,198.432114 469.492035,197.253128 471.155090,195.281464 
	C463.275452,196.442719 455.397308,197.613922 447.515747,198.762054 
	C441.104218,199.696075 434.662567,200.455276 428.286896,201.588196 
	C425.444763,202.093231 424.277679,201.160034 423.820190,198.515030 
	C423.333923,195.703857 424.751251,194.489731 427.238129,194.124985 
	C435.456696,192.919617 443.681641,191.757538 451.902649,190.568604 
	C452.559753,190.473557 453.205566,190.300369 454.287231,190.062866 
z"/>
<path fill="#000000" opacity="1.000000" stroke="none" 
	d="
M176.819275,429.840698 
	C179.722824,426.596375 182.418289,423.641357 185.035553,420.618683 
	C186.580414,418.834473 188.271103,418.440582 190.331238,419.635956 
	C192.003235,420.606110 194.307953,421.063995 193.800720,423.801331 
	C190.172760,443.380219 186.528976,462.956116 182.904007,482.458832 
	C176.574310,482.157990 174.959534,480.651581 175.880310,475.928497 
	C178.673981,461.598145 181.579086,447.289520 184.590790,432.222015 
	C174.689560,443.427673 165.238388,454.175446 155.711029,464.855255 
	C154.149750,466.605408 152.947067,469.385040 149.708969,468.158203 
	C146.584625,466.974426 144.493042,465.748108 145.293198,461.302551 
	C147.907639,446.776733 149.867004,432.133026 152.153778,417.036346 
	C142.875931,428.202606 133.887634,439.076965 124.831688,449.894684 
	C120.585999,454.966339 120.313042,454.938232 114.783485,450.877563 
	C114.302635,449.134552 115.595573,448.133270 116.534332,447.029755 
	C128.086472,433.450226 139.673920,419.900696 151.206558,406.304596 
	C153.039871,404.143250 154.573990,402.510651 157.878067,404.183990 
	C161.136063,405.833954 161.331284,407.859711 160.779541,411.070557 
	C158.250595,425.788116 155.992828,440.552307 153.446808,456.495117 
	C161.623108,447.165771 169.100708,438.633667 176.819275,429.840698 
z"/>
<path fill="#000000" opacity="1.000000" stroke="none" 
	d="
M391.268799,130.565979 
	C392.477020,131.646210 393.475586,132.465225 394.650574,133.428970 
	C400.275391,127.476959 406.387207,124.163475 414.263000,128.636948 
	C420.716553,132.302612 424.001099,138.962692 428.567810,144.246597 
	C436.698822,140.469940 437.909027,135.393311 432.605225,128.771225 
	C430.909271,126.653755 428.738739,125.116730 426.572510,123.567291 
	C424.833099,122.323128 424.141663,121.021942 425.571381,118.989258 
	C427.052917,116.882950 428.581360,116.706665 430.591187,118.155365 
	C436.127197,122.145851 440.595825,127.004654 442.730499,133.605667 
	C444.224976,138.227005 443.599243,142.697296 439.853119,146.012085 
	C431.205994,153.663559 420.950684,159.022156 411.443512,165.451187 
	C410.278290,166.239136 409.232452,166.044403 408.435333,164.876373 
	C407.600708,163.653305 406.469086,162.442749 407.585419,160.836502 
	C408.234619,159.902420 409.008759,159.055222 410.040680,157.781311 
	C400.650574,155.426102 395.173187,149.657318 393.601562,140.363724 
	C393.368286,138.984314 392.111603,139.327011 391.282257,138.920624 
	C380.537079,133.655319 378.743317,123.242821 387.265686,115.008141 
	C392.536133,109.915619 397.975922,104.996658 403.395905,100.061531 
	C405.236938,98.385193 406.205933,96.812225 404.108856,94.635368 
	C403.162903,93.653381 402.467072,92.458710 403.718170,91.127357 
	C404.822906,89.951790 406.180786,89.944832 407.361450,90.703941 
	C410.661133,92.825516 413.584930,91.951241 416.652496,90.108711 
	C418.577209,88.952644 420.913361,87.350006 422.791016,90.158669 
	C424.657898,92.951202 421.589447,93.795891 420.395477,95.324036 
	C419.490509,96.482300 418.029724,97.195290 417.574463,98.953239 
	C418.609985,101.748108 421.210236,103.475418 423.085175,105.751312 
	C424.595306,107.584366 425.024353,109.059372 423.009094,110.839172 
	C421.062714,112.558182 419.782349,111.619232 418.366028,110.172539 
	C416.287994,108.049965 414.611542,105.498970 411.505280,103.674423 
	C404.755676,109.900085 397.502319,115.695450 391.290131,122.611145 
	C389.219788,124.915947 388.805359,127.670967 391.268799,130.565979 
M411.216675,152.408340 
	C416.083466,153.254272 419.829407,151.262680 423.311859,147.797104 
	C420.310272,143.188538 417.578552,138.647659 412.955627,135.724060 
	C409.367584,133.454926 405.951263,133.950516 403.025177,136.920471 
	C400.162048,139.826538 400.980804,143.004105 402.925842,145.989609 
	C404.770508,148.821060 407.183075,151.068497 411.216675,152.408340 
z"/>
<path fill="#000000" opacity="1.000000" stroke="none" 
	d="
M303.471771,16.444471 
	C307.523407,17.643913 311.252655,18.545414 314.841156,19.837715 
	C329.525848,25.126036 335.825073,35.923016 333.385834,51.364449 
	C330.788513,67.806648 321.873444,77.486824 307.079468,78.831245 
	C297.442780,79.706993 288.518829,75.665199 279.429260,73.125046 
	C277.606781,72.615730 277.484985,70.884369 277.925690,69.387550 
	C283.269135,51.240639 287.601013,32.803352 293.583740,14.840930 
	C293.629456,14.703577 293.816620,14.613316 294.085205,14.364337 
	C297.174774,14.166856 300.075958,15.515879 303.471771,16.444471 
M320.292847,62.740261 
	C323.289673,58.374794 324.716003,53.382839 325.441101,48.272633 
	C326.456726,41.114349 324.912750,34.664463 318.778076,30.005278 
	C313.168152,25.744680 306.513458,24.459848 299.353577,22.804525 
	C295.306061,37.238808 291.351685,51.290970 287.447144,65.356979 
	C287.121246,66.531090 287.490112,67.572670 288.618866,68.379921 
	C297.376251,74.642952 312.853271,72.165726 320.292847,62.740261 
z"/>
<path fill="#000000" opacity="1.000000" stroke="none" 
	d="
M83.191162,313.033386 
	C87.491264,326.395142 87.491211,326.394958 74.309158,330.570496 
	C61.010166,334.783112 47.674202,338.884277 34.434597,343.275940 
	C30.385857,344.618958 28.461967,343.952118 27.349985,339.557617 
	C25.240835,331.222321 21.398794,323.312408 21.644876,314.423950 
	C21.833780,307.600800 24.116499,301.577820 29.217112,297.116028 
	C38.485676,289.008270 49.441006,285.764343 61.597530,288.021423 
	C68.637817,289.328583 73.821960,293.777008 77.549316,299.875793 
	C79.994347,303.876434 81.586395,308.244476 83.191162,313.033386 
M62.509094,325.854889 
	C66.627121,324.558228 70.744255,323.258698 74.863655,321.966431 
	C76.366516,321.494934 77.550827,320.892975 77.572441,318.947754 
	C77.688278,308.521332 67.568420,296.580292 57.244720,295.557007 
	C51.517578,294.989380 46.063835,296.755096 40.893188,299.180328 
	C32.108540,303.300659 28.860582,308.825562 29.165079,318.565918 
	C29.302839,322.972717 30.980913,326.967346 32.042484,331.136322 
	C32.881035,334.429443 34.552402,334.814850 37.539642,333.810791 
	C45.565907,331.113007 53.676971,328.667511 62.509094,325.854889 
z"/>
<path fill="#000000" opacity="1.000000" stroke="none" 
	d="
M97.784836,85.982224 
	C106.784012,75.513802 117.604744,74.846153 127.518654,83.893600 
	C132.095856,88.070770 136.194199,92.556816 138.101242,98.710861 
	C141.321762,109.103470 135.567825,119.624275 125.008568,122.333061 
	C123.443222,122.734619 121.877213,123.133629 119.795715,123.665642 
	C124.341949,128.680862 128.496780,133.371323 132.780380,137.941101 
	C134.694733,139.983368 135.847427,141.522171 133.134827,144.068405 
	C130.219818,146.804626 128.732971,145.347122 126.723206,143.127472 
	C114.447983,129.570374 102.050240,116.124062 89.802071,102.542755 
	C88.324127,100.903946 85.210197,99.590874 87.070259,96.438591 
	C89.026794,93.122803 91.697144,94.311424 94.306969,96.017532 
	C95.201385,92.405266 95.463165,89.020241 97.784836,85.982224 
M125.388306,93.132050 
	C123.150192,90.644493 120.674454,88.447372 117.665390,86.924370 
	C112.306534,84.212074 107.708099,84.990395 103.664589,89.270424 
	C99.815842,93.344299 99.154846,97.985603 102.003418,102.956192 
	C104.850784,107.924683 108.685165,112.078079 113.537605,115.147850 
	C118.155647,118.069359 123.073486,117.556923 127.285965,113.830780 
	C131.145370,110.416969 132.542831,106.300781 130.440720,101.327713 
	C129.269455,98.556793 127.869919,95.932098 125.388306,93.132050 
z"/>
<path fill="#000000" opacity="1.000000" stroke="none" 
	d="
M63.029514,406.284882 
	C62.105671,403.532288 64.156296,402.820618 65.548180,401.782806 
	C70.304596,398.236237 75.105812,394.749695 80.406364,390.861481 
	C75.192108,389.036957 70.988770,386.926086 68.128143,382.728027 
	C63.348297,375.713501 63.083340,367.678528 68.123047,360.872253 
	C72.804565,354.549713 79.089493,350.102142 86.625870,347.868927 
	C98.650909,344.305542 109.998199,352.921967 110.321663,365.562897 
	C110.346748,366.543060 110.410126,367.522278 110.446480,368.303406 
	C111.455696,369.093628 112.286369,368.799713 113.036850,368.527435 
	C115.347046,367.689240 116.473694,369.130310 117.405006,370.790222 
	C118.619484,372.954865 116.743233,373.717834 115.456635,374.670349 
	C101.942612,384.675171 88.440971,394.697021 74.879021,404.636505 
	C72.224998,406.581635 69.890015,409.059296 66.721191,410.113342 
	C64.863167,409.493561 64.135193,407.931183 63.029514,406.284882 
M79.594116,384.290283 
	C89.050522,386.421295 94.982124,380.414673 100.785484,374.715637 
	C105.609955,369.977875 105.777603,365.620087 102.339149,360.322876 
	C98.920128,355.055634 94.265594,353.568298 88.046410,355.781097 
	C84.377182,357.086578 81.239235,359.296570 78.301483,361.772369 
	C69.346764,369.318909 69.573318,376.602478 79.594116,384.290283 
z"/>
<path fill="#000000" opacity="1.000000" stroke="none" 
	d="
M451.424988,333.487915 
	C458.314728,336.921509 464.862396,340.204834 471.427551,343.452850 
	C473.843170,344.647949 476.424408,345.364868 474.563812,349.225311 
	C472.619507,353.259583 470.329590,351.752625 467.716644,350.442383 
	C457.762360,345.450867 447.789795,340.495667 436.930023,335.081177 
	C439.919983,343.109894 442.419861,350.396301 445.358704,357.501129 
	C447.153168,361.839386 446.007965,365.101898 442.698883,368.808502 
	C439.447479,362.717560 437.436401,356.634644 435.585327,350.554657 
	C434.191101,345.975128 432.027740,344.637848 427.210632,345.793854 
	C419.193878,347.717651 410.992096,348.870422 402.247925,350.460724 
	C403.045013,345.397461 404.410797,342.398560 409.582153,341.430054 
	C416.505981,340.133331 423.663696,339.615875 430.544281,337.132538 
	C429.711487,327.254242 419.552460,328.762848 415.288605,323.534637 
	C416.921783,316.881317 417.507172,316.598816 423.370422,319.525787 
	C432.604980,324.135620 441.849518,328.725372 451.424988,333.487915 
z"/>
<path fill="#000000" opacity="1.000000" stroke="none" 
	d="
M406.943481,375.972595 
	C409.863953,372.137390 412.559998,368.576569 415.214722,365.070343 
	C406.559875,355.865448 399.365204,359.649353 388.299591,378.941711 
	C384.072113,377.893738 382.601105,375.562531 384.458527,371.345673 
	C388.359833,362.488495 393.534576,355.049255 403.945312,353.171783 
	C412.726196,351.588257 425.342743,358.892395 430.463531,368.570068 
	C434.705841,376.587524 433.387848,385.223083 426.902191,391.904480 
	C419.419128,399.613373 405.500244,398.888367 398.773590,390.544128 
	C397.340088,388.765930 398.074890,387.503235 399.118439,386.131348 
	C401.634766,382.823456 404.183411,379.540161 406.943481,375.972595 
M414.726044,389.698761 
	C420.448151,389.391266 424.310211,386.416077 425.548248,381.361755 
	C426.713684,376.604004 424.829559,372.149261 420.264160,369.537109 
	C417.167969,373.497772 413.990692,377.485687 410.897278,381.537628 
	C406.596405,387.171204 406.807495,387.680237 414.726044,389.698761 
z"/>
<path fill="#000000" opacity="1.000000" stroke="none" 
	d="
M121.765694,423.127686 
	C109.731255,426.947174 98.859467,421.600769 95.557381,410.552063 
	C93.611870,404.042419 97.109848,393.936035 102.501976,389.880249 
	C104.837440,388.123627 106.194740,389.687195 107.663422,390.953888 
	C112.953041,395.516083 118.184494,400.145691 123.455414,404.729675 
	C124.565704,405.695312 125.750107,406.575714 126.838120,407.445587 
	C136.748962,400.433899 132.672623,391.371613 114.649178,380.032990 
	C116.059753,376.070679 118.240311,374.654541 122.515434,376.604370 
	C134.085846,381.881531 140.693848,390.906708 139.177765,401.668884 
	C137.749237,411.809387 130.978271,418.406433 121.765694,423.127686 
M112.516289,403.990204 
	C111.768555,403.328522 111.031052,402.654877 110.271416,402.007141 
	C106.045235,398.403717 103.985214,399.097076 102.568634,404.592438 
	C101.388161,409.171844 103.499359,413.622955 108.123062,416.303009 
	C112.623993,418.911865 117.219666,417.998444 122.199127,413.370850 
	C119.877922,409.674683 116.084518,407.441650 112.516289,403.990204 
z"/>
<path fill="#000000" opacity="1.000000" stroke="none" 
	d="
M164.807526,63.229836 
	C167.388489,66.545677 166.962708,68.607925 163.394119,70.553986 
	C155.991425,74.590866 148.797302,79.010223 141.597290,83.225594 
	C146.718231,95.223541 155.503403,94.332321 171.666626,80.634636 
	C173.835159,82.487862 175.991684,84.138443 173.776459,87.513672 
	C167.795868,96.625954 153.526947,101.481186 144.333084,97.438324 
	C134.007172,92.897659 126.362671,77.416687 129.282608,67.025909 
	C131.554184,58.942436 137.205048,54.308132 145.092926,52.897762 
	C153.828506,51.335815 160.096771,55.697277 164.807526,63.229836 
M156.278717,66.319244 
	C154.999832,61.929729 151.671677,59.708775 147.505447,59.503178 
	C143.091843,59.285374 139.353256,61.496971 137.418732,65.593903 
	C135.607468,69.429810 135.342560,73.446373 138.320374,77.587173 
	C144.375580,73.921059 150.179672,70.406990 156.278717,66.319244 
z"/>
<path fill="#000000" opacity="1.000000" stroke="none" 
	d="
M77.713181,181.953857 
	C77.819229,180.061462 77.919281,178.595337 78.034805,176.902374 
	C82.351875,176.285721 84.406609,177.520035 84.421196,182.063568 
	C84.437073,187.010742 83.501907,191.676041 81.479553,196.101089 
	C77.818542,204.111633 71.690331,208.415207 62.655052,208.382355 
	C55.720894,208.357132 49.546360,206.158234 44.039223,202.157745 
	C35.275440,195.791550 33.160595,184.756775 38.732628,175.536865 
	C43.647812,167.403839 54.509869,164.690735 63.942162,169.064575 
	C66.422112,170.214539 66.391426,171.733765 65.672951,173.892120 
	C63.413559,180.679581 61.236908,187.494797 59.062496,194.310196 
	C58.569458,195.855545 58.214771,197.445038 57.817242,198.936050 
	C64.962524,202.149048 71.835228,199.904419 74.981888,193.435989 
	C76.663391,189.979416 77.703651,186.288147 77.713181,181.953857 
M52.823734,192.283295 
	C54.224331,188.025772 55.517372,183.728806 57.060471,179.523560 
	C58.238174,176.314072 56.951107,175.357651 53.937305,175.151718 
	C47.961407,174.743378 44.037350,177.496643 42.639797,183.327194 
	C41.263248,189.070129 44.226608,193.881317 50.632671,196.249130 
	C51.990746,195.608353 52.082787,194.157150 52.823734,192.283295 
z"/>
<path fill="#000000" opacity="1.000000" stroke="none" 
	d="
M66.670662,261.877045 
	C66.999748,256.226013 64.360092,251.567459 63.323288,246.560669 
	C67.596680,244.841339 70.021118,245.842880 71.372383,249.919968 
	C73.459908,256.218506 74.344711,262.633179 72.600517,269.035858 
	C69.391312,280.816284 56.985809,286.498474 42.068073,283.361267 
	C30.178284,280.860901 23.605373,270.321686 26.659056,258.654114 
	C28.815542,250.414581 38.870682,243.875610 47.576630,244.899841 
	C50.158810,245.203644 50.229851,246.883514 50.380859,248.782227 
	C50.986385,256.395599 51.823772,263.996490 52.189499,271.620514 
	C52.379864,275.588867 53.909924,276.023102 57.235329,274.896149 
	C63.168293,272.885529 66.110031,269.133820 66.670662,261.877045 
M41.276340,254.013199 
	C35.380520,256.101227 32.444729,259.430389 32.431614,264.043030 
	C32.417011,269.179718 35.853027,273.701172 40.784492,275.221436 
	C44.096153,276.242310 45.972046,275.595032 45.670391,271.666687 
	C45.277164,266.545746 44.979740,261.417419 44.650883,256.291626 
	C44.542114,254.596359 44.103634,253.287781 41.276340,254.013199 
z"/>
<path fill="#000000" opacity="1.000000" stroke="none" 
	d="
M428.569611,265.942230 
	C431.001892,257.246643 435.119019,254.104843 442.844116,254.693558 
	C449.986725,255.237885 454.299164,259.881104 455.394073,267.824402 
	C455.921448,271.650330 455.790924,275.393799 455.497681,279.222839 
	C455.323456,281.498138 453.766479,284.999603 457.889832,285.708801 
	C461.690796,286.362579 465.258881,285.851624 467.207794,281.795929 
	C469.293793,277.454895 468.485291,273.053680 467.524139,268.635986 
	C467.224487,267.258667 466.192810,265.665985 468.040955,264.634247 
	C470.342346,263.349457 472.558167,263.002380 473.587830,266.205475 
	C476.096802,274.010620 475.742889,281.632660 471.531464,288.781006 
	C469.047638,292.996979 464.592010,294.215546 460.262787,293.851929 
	C450.021210,292.991821 439.835480,291.474243 429.621826,290.268036 
	C427.604095,290.029755 426.750854,289.064667 426.738220,287.014069 
	C426.716553,283.499847 429.612823,283.996826 432.170410,283.150452 
	C429.412537,277.836487 426.320557,272.582092 428.569611,265.942230 
M448.293182,266.471710 
	C444.129669,261.966400 438.988251,261.207489 436.435150,264.998108 
	C433.604279,269.201080 433.722656,273.818939 435.913177,278.294647 
	C438.061859,282.684906 442.213501,283.952972 446.618896,284.549866 
	C448.385040,284.789154 449.574066,283.778656 449.559052,281.967163 
	C449.517975,277.022247 450.651489,271.994904 448.293182,266.471710 
z"/>
<path fill="#000000" opacity="1.000000" stroke="none" 
	d="
M72.684204,115.404266 
	C85.282684,106.885353 107.838463,120.069969 109.167824,135.542191 
	C110.136520,146.816635 98.671440,163.455002 80.558525,156.752045 
	C75.802155,154.991867 71.649010,152.217926 68.184853,148.553131 
	C58.236450,138.028595 59.969353,124.675041 72.684204,115.404266 
M85.438751,120.961082 
	C78.276230,119.493240 73.862648,121.326958 70.722763,127.075195 
	C67.827515,132.375580 68.744446,137.523056 73.520195,142.501053 
	C77.056549,146.187180 81.411896,148.643723 86.183357,150.237015 
	C91.023117,151.853134 95.779579,150.104019 99.036606,145.949585 
	C102.405685,141.652222 102.894630,136.393311 100.142075,132.004333 
	C96.827003,126.718391 91.885353,123.450356 85.438751,120.961082 
z"/>
<path fill="#000000" opacity="1.000000" stroke="none" 
	d="
M38.442150,241.599182 
	C34.652546,242.509995 31.264078,243.321579 27.859486,244.058655 
	C27.440487,244.149368 26.935345,243.842194 26.508795,243.729630 
	C25.307526,238.067276 26.024420,236.735641 31.200745,235.517593 
	C41.860855,233.009079 52.539158,230.577896 63.603519,228.024048 
	C62.632133,226.431702 60.914764,225.928894 59.435291,225.166275 
	C51.305035,220.975311 43.270508,216.576752 34.985821,212.715698 
	C30.213551,210.491592 28.699951,207.741440 31.335037,203.063736 
	C32.813290,202.348907 33.917320,203.311218 35.046265,203.905411 
	C46.966396,210.179504 58.858913,216.506149 70.789528,222.760132 
	C73.033173,223.936249 74.656487,225.237152 74.072975,228.143753 
	C73.500801,230.994019 72.933311,233.427979 69.370132,234.214615 
	C59.156246,236.469528 49.010754,239.034286 38.442150,241.599182 
z"/>
<path fill="#000000" opacity="1.000000" stroke="none" 
	d="
M364.019989,393.038116 
	C363.379364,387.453857 367.715546,385.279022 371.300690,382.783173 
	C375.274445,380.016785 379.434845,380.477142 383.469604,382.976166 
	C386.642792,384.941528 388.859955,387.896942 391.372742,390.535004 
	C395.943359,395.333496 400.414185,400.226959 404.663605,404.797852 
	C406.544952,405.079254 407.168793,403.898926 408.081818,403.251892 
	C409.050934,402.565033 409.998474,401.838867 411.217133,402.762451 
	C412.491852,403.728455 412.774902,405.177063 412.001831,406.313538 
	C409.459320,410.051086 411.100922,413.209351 412.950928,416.479340 
	C413.937256,418.222748 414.987061,420.182343 412.760254,421.792816 
	C410.263306,423.598694 409.291992,421.066772 407.910706,419.873077 
	C406.673431,418.803802 405.528137,417.628113 403.971741,416.146759 
	C401.460175,418.359222 399.098785,420.375275 396.813477,422.474091 
	C395.180573,423.973755 393.759583,424.168671 392.163055,422.374084 
	C390.617065,420.636444 390.897552,419.363800 392.419769,417.689148 
	C399.092651,410.348053 399.030396,410.315704 392.203674,403.070038 
	C388.897827,399.561310 385.737915,395.911407 382.357178,392.477814 
	C377.830048,387.879913 374.545715,387.890961 370.156158,392.603088 
	C368.323669,394.570221 366.792206,395.870209 364.273529,393.173950 
	C363.998505,393.008270 364.019989,393.038116 364.019989,393.038116 
z"/>
<path fill="#000000" opacity="1.000000" stroke="none" 
	d="
M75.068359,159.853607 
	C79.873619,162.251160 84.295120,164.593399 88.838829,166.667984 
	C91.666908,167.959229 91.943336,169.586624 90.636475,172.206207 
	C89.379333,174.726120 87.893608,175.097626 85.451683,173.886963 
	C68.438576,165.451996 51.401398,157.065216 34.339317,148.729767 
	C31.870453,147.523621 30.677631,146.297180 32.098190,143.361725 
	C33.545326,140.371353 35.233829,140.066284 38.029751,141.472809 
	C50.231335,147.611023 62.495075,153.625671 75.068359,159.853607 
z"/>
<path fill="#000000" opacity="1.000000" stroke="none" 
	d="
M459.283508,148.213028 
	C461.707184,147.023132 463.824554,146.055801 465.887390,144.983536 
	C468.322266,143.717911 470.126801,143.696457 471.433105,146.662903 
	C472.639801,149.403244 472.006592,150.975494 469.370789,152.208344 
	C452.069000,160.300949 434.778412,168.417969 417.527130,176.617447 
	C414.861877,177.884232 413.677582,176.940353 412.534698,174.575546 
	C411.162415,171.735977 412.182678,170.421432 414.779327,169.211746 
	C429.534973,162.337524 444.234467,155.342850 459.283508,148.213028 
z"/>
<path fill="#000000" opacity="1.000000" stroke="none" 
	d="
M167.756393,55.127956 
	C166.872894,52.557919 166.042892,50.380688 165.336563,48.164055 
	C164.730225,46.261265 162.967148,44.243004 166.096054,42.694603 
	C168.866226,41.323715 170.446136,42.331345 171.656235,44.788174 
	C171.864471,45.210930 172.309494,45.517044 173.037506,46.297867 
	C175.420105,41.293926 178.306122,36.898315 183.871277,35.381905 
	C186.018784,34.796749 188.269012,33.307720 189.445801,36.957191 
	C190.457657,40.095184 189.476929,41.337463 186.467560,42.359604 
	C178.765884,44.975487 175.505173,51.478901 177.973694,59.390480 
	C180.001450,65.889465 182.488098,72.247063 184.836914,78.643257 
	C185.895859,81.526917 187.372803,84.256569 182.868118,85.741104 
	C178.343323,87.232269 178.344223,83.579216 177.433151,81.210915 
	C174.150482,72.677536 171.039429,64.078133 167.756393,55.127956 
z"/>
<path fill="#000000" opacity="1.000000" stroke="none" 
	d="
M461.644989,330.754761 
	C455.595459,330.411987 455.063843,329.714630 456.638245,324.848419 
	C459.019623,317.488159 455.814484,311.139923 447.615540,308.093079 
	C440.935760,305.610718 434.081116,303.563812 427.219604,301.621948 
	C424.292358,300.793518 422.849701,299.774963 423.834198,296.469482 
	C424.858551,293.030243 426.968567,293.299103 429.625275,294.122192 
	C440.725128,297.560944 451.877716,300.833588 462.933624,304.406494 
	C465.175323,305.130890 469.282440,304.399170 468.295441,309.131683 
	C467.385803,313.493408 464.221100,311.870605 460.939117,311.395844 
	C464.181091,317.958038 466.100952,324.177887 461.644989,330.754761 
z"/>
<path fill="#000000" opacity="1.000000" stroke="none" 
	d="
M344.170898,66.081436 
	C340.662231,73.454834 337.249634,80.461548 333.948486,87.520386 
	C332.729431,90.127090 331.480865,91.537270 328.283325,89.929955 
	C325.095154,88.327354 325.507263,86.482620 326.770050,83.906921 
	C332.245148,72.739288 337.665253,61.543873 342.988678,50.303314 
	C344.224945,47.692909 345.641205,46.860256 348.409393,48.155254 
	C351.177460,49.450165 351.566772,51.022526 350.170013,53.652122 
	C348.071655,57.602657 346.250305,61.700310 344.170898,66.081436 
z"/>
<path fill="#000000" opacity="1.000000" stroke="none" 
	d="
M363.984863,392.996094 
	C370.737610,403.895081 379.301666,413.488220 386.659790,423.963837 
	C387.709442,425.458221 389.724304,426.796143 387.892792,429.154846 
	C385.478577,432.263947 383.220032,432.425476 380.832214,429.281067 
	C373.281219,419.337402 365.776672,409.358307 358.290955,399.365387 
	C357.348785,398.107635 355.536163,396.678986 357.124390,395.058380 
	C358.721313,393.428802 360.325836,390.818298 363.706665,392.872742 
	C364.019989,393.038116 363.998505,393.008270 363.984863,392.996094 
z"/>
<path fill="#000000" opacity="1.000000" stroke="none" 
	d="
M242.090576,71.782005 
	C239.346283,74.118263 236.706146,74.726875 234.328766,72.155060 
	C232.199280,69.851433 231.955734,66.985344 233.656235,64.353188 
	C235.118347,62.090008 237.683075,61.797508 239.901199,62.760700 
	C244.030380,64.553741 244.005493,67.865448 242.090576,71.782005 
z"/>
<path fill="#000000" opacity="1.000000" stroke="none" 
	d="
M237.477783,438.898804 
	C235.691528,437.694183 234.833389,436.383270 234.711807,434.592072 
	C234.478607,431.156525 235.744522,428.570923 239.293640,428.105133 
	C242.480911,427.686859 244.815994,429.358124 245.169296,432.699005 
	C245.538254,436.187744 244.448730,438.971130 240.319290,439.283539 
	C239.511490,439.344635 238.684448,439.151245 237.477783,438.898804 
z"/>
<path fill="#000000" opacity="1.000000" stroke="none" 
	d="
M411.253082,77.107605 
	C408.145752,79.207390 405.478790,79.153328 403.933594,75.883301 
	C402.696564,73.265457 403.877502,70.986092 406.321075,69.546951 
	C408.896698,68.030006 410.779480,69.332108 412.256500,71.391396 
	C413.679688,73.375671 412.802460,75.166550 411.253082,77.107605 
z"/>
<path fill="#000000" opacity="1.000000" stroke="none" 
	d="
M396.011963,435.955017 
	C398.127502,438.005402 398.993164,440.081329 397.664276,442.488953 
	C396.796814,444.060608 395.244629,444.833893 393.470917,444.698303 
	C391.189423,444.523834 390.047180,442.848480 389.219696,440.937012 
	C388.460358,439.182861 388.959503,437.648163 390.253387,436.387360 
	C391.863770,434.818207 393.692719,434.446289 396.011963,435.955017 
z"/>
<path fill="#000000" opacity="1.000000" stroke="none" 
	d="
M356.166260,41.375900 
	C353.692871,42.662567 351.688904,42.623844 350.025696,40.705265 
	C348.844574,39.342857 348.546417,37.804169 349.311005,36.109406 
	C350.580475,33.295673 352.686829,31.714571 355.600159,33.287716 
	C359.282623,35.276154 358.866760,38.196922 356.166260,41.375900 
z"/>
</svg>