<?xml version="1.0" standalone="no"?>
<!DOCTYPE svg PUBLIC "-//W3C//DTD SVG 20010904//EN"
 "http://www.w3.org/TR/2001/REC-SVG-20010904/DTD/svg10.dtd">
<svg version="1.0" xmlns="http://www.w3.org/2000/svg"
 width="500.000000pt" height="500.000000pt" viewBox="0 0 500.000000 500.000000"
 preserveAspectRatio="xMidYMid meet">

<g transform="translate(0.000000,500.000000) scale(0.100000,-0.100000)"
fill="#000000" stroke="none">
<path d="M2921 4836 c-46 -144 -150 -541 -144 -547 4 -4 51 -19 103 -33 100
-27 190 -33 251 -16 122 34 222 238 185 378 -29 114 -96 168 -272 217 l-113
32 -10 -31z m130 -65 c36 -10 79 -26 96 -34 44 -23 91 -81 99 -123 15 -82 -18
-207 -69 -263 -55 -59 -149 -74 -262 -42 -50 14 -59 20 -57 36 7 42 121 445
125 445 1 0 32 -8 68 -19z"/>
<path d="M3495 4656 c-18 -26 -11 -53 15 -61 44 -14 81 45 45 72 -27 19 -42
16 -60 -11z"/>
<path d="M1815 4646 c-39 -17 -64 -46 -80 -92 l-13 -38 -17 35 c-10 19 -19 35
-20 37 -1 1 -14 -2 -28 -7 l-25 -10 77 -211 c74 -205 77 -210 101 -205 14 4
28 10 33 14 4 4 -13 62 -38 130 -27 74 -45 139 -45 165 0 59 33 107 88 126 28
10 41 19 37 28 -3 8 -5 20 -5 28 0 17 -25 17 -65 0z"/>
<path d="M3401 4458 c-21 -46 -64 -136 -95 -201 -31 -64 -56 -119 -56 -122 0
-2 13 -11 28 -19 l29 -15 94 196 c52 107 95 199 97 204 2 4 -10 15 -27 24
l-31 15 -39 -82z"/>
<path d="M1405 4466 c-84 -37 -133 -118 -121 -202 8 -60 61 -158 104 -194 89
-73 199 -59 307 41 40 37 43 43 33 65 -14 30 -19 30 -49 -2 -47 -52 -109 -84
-162 -84 -44 0 -53 4 -90 40 -47 48 -60 33 115 134 l118 68 -18 30 c-58 99
-153 141 -237 104z m112 -66 c17 -10 36 -28 42 -39 10 -17 1 -25 -87 -75 -54
-31 -101 -56 -105 -56 -3 0 -11 16 -16 36 -14 50 5 102 48 131 42 28 76 29
118 3z"/>
<path d="M3572 4404 c-54 -28 -77 -69 -77 -141 0 -58 -2 -63 -25 -68 -39 -10
-60 -35 -60 -71 0 -31 -2 -33 -28 -28 -72 15 -142 -57 -128 -130 15 -79 168
-186 265 -186 106 0 173 98 124 181 -10 17 -50 52 -90 80 -40 27 -75 54 -78
59 -21 34 40 76 74 52 9 -7 34 -21 55 -33 84 -45 182 -5 208 86 6 22 13 41 14
43 1 2 17 -4 35 -13 31 -16 33 -16 46 1 11 16 5 23 -65 71 -42 29 -94 65 -114
79 -47 33 -111 41 -156 18z m136 -64 c61 -38 66 -92 13 -152 -32 -36 -74 -41
-115 -15 -63 42 -69 100 -16 157 33 36 70 39 118 10z m-221 -331 c67 -44 103
-80 103 -100 0 -9 -9 -28 -21 -43 -29 -37 -87 -36 -155 4 -94 54 -121 118 -67
160 36 28 76 22 140 -21z"/>
<path d="M2332 4368 c-32 -32 -3 -92 42 -86 38 4 53 29 40 65 -7 21 -17 29
-39 31 -17 2 -36 -3 -43 -10z"/>
<path d="M4047 4302 c-20 -22 -22 -43 -5 -60 19 -19 45 -14 62 10 13 19 14 25
2 43 -18 27 -39 30 -59 7z"/>
<path d="M1055 4216 c-16 -7 -47 -32 -67 -55 -35 -38 -44 -63 -40 -113 2 -23
-7 -23 -33 2 -22 20 -22 20 -40 0 -22 -24 -43 3 214 -278 l204 -223 23 22 c14
13 20 27 16 35 -4 7 -45 52 -90 99 l-83 85 43 0 c57 0 106 27 142 79 56 78 33
180 -62 276 -76 78 -155 102 -227 71z m133 -83 c79 -54 133 -148 118 -209 -10
-37 -60 -82 -100 -90 -43 -8 -100 21 -149 75 -81 89 -89 151 -28 212 49 50 97
53 159 12z"/>
<path d="M3816 4036 c-80 -90 -146 -168 -146 -173 0 -4 11 -16 24 -25 23 -17
23 -17 170 149 80 91 146 168 146 172 0 3 -11 14 -25 24 l-24 17 -145 -164z"/>
<path d="M4146 4098 c-36 -19 -42 -19 -71 -5 -45 21 -64 3 -32 -31 l22 -24
-40 -35 c-206 -184 -234 -225 -200 -297 18 -39 79 -91 95 -81 6 3 10 -4 10
-15 0 -63 68 -143 138 -163 l46 -14 -27 -18 c-31 -20 -32 -23 -13 -48 13 -17
24 -12 165 82 194 130 212 162 151 267 -25 45 -102 124 -119 124 -4 0 -12 -9
-19 -20 -11 -18 -6 -25 43 -73 49 -47 55 -58 55 -94 0 -34 -6 -46 -31 -67 -17
-14 -34 -26 -39 -26 -5 0 -24 22 -44 49 -46 62 -108 119 -141 127 -41 10 -92
-5 -124 -36 -16 -17 -34 -30 -40 -30 -17 0 -51 52 -51 78 0 26 72 102 189 200
l44 37 42 -47 c40 -44 43 -46 64 -32 21 15 21 16 -25 67 l-46 52 37 32 c24 21
35 38 32 48 -8 20 -24 18 -71 -7z m-3 -458 c19 -16 47 -48 62 -71 l29 -41 -24
-19 c-56 -42 -125 -36 -177 16 -89 89 15 199 110 115z"/>
<path d="M755 3868 c-96 -36 -161 -153 -136 -244 22 -82 134 -175 228 -190
133 -21 259 122 224 253 -32 117 -212 220 -316 181z m133 -82 c58 -30 117 -93
127 -135 9 -42 -27 -116 -66 -136 -62 -32 -147 -8 -221 63 -71 68 -71 141 -2
202 44 38 95 40 162 6z"/>
<path d="M318 3575 c-7 -16 -8 -29 -2 -34 5 -5 134 -69 286 -144 l276 -135 13
29 c6 16 10 31 8 33 -10 10 -550 276 -559 276 -6 0 -16 -11 -22 -25z"/>
<path d="M4398 3436 c-152 -72 -280 -134 -283 -138 -5 -5 8 -42 21 -57 3 -3
561 255 573 265 6 5 -20 64 -28 63 -3 -1 -131 -60 -283 -133z"/>
<path d="M439 3307 c-101 -68 -115 -196 -33 -287 76 -84 237 -113 321 -58 53
35 93 114 100 198 6 65 -1 80 -39 80 -15 0 -18 -9 -19 -52 -1 -114 -58 -188
-143 -188 -73 0 -74 2 -22 156 25 77 46 142 46 146 0 12 -72 28 -126 28 -37 0
-61 -6 -85 -23z m138 -51 c6 -5 -73 -226 -80 -226 -5 0 -27 17 -48 39 -31 31
-39 46 -39 75 0 79 57 132 130 119 19 -3 36 -6 37 -7z"/>
<path d="M4526 3103 c-159 -24 -292 -45 -294 -47 -2 -3 -1 -17 2 -33 l7 -29
216 33 c119 17 235 36 259 41 24 5 44 8 44 7 0 -2 -110 -65 -245 -141 -211
-118 -245 -140 -245 -160 0 -13 8 -27 18 -32 9 -5 136 -36 281 -68 l264 -58
-259 -38 c-142 -20 -260 -37 -261 -38 -7 -1 -2 -59 5 -63 8 -6 581 79 589 86
2 3 1 26 -2 51 -8 54 23 42 -295 112 -118 26 -218 50 -222 54 -5 3 96 64 222
135 l231 129 -7 46 c-3 25 -9 48 -13 51 -3 3 -136 -14 -295 -38z"/>
<path d="M297 2948 c-2 -18 -4 -34 -3 -34 0 -1 82 -42 180 -92 99 -50 173 -93
165 -96 -8 -2 -79 -19 -159 -36 -222 -47 -217 -46 -225 -81 -4 -17 -5 -32 -3
-35 3 -2 108 21 235 52 l231 56 6 36 c3 20 2 39 -2 43 -9 9 -407 219 -414 219
-3 0 -8 -15 -11 -32z"/>
<path d="M422 2550 c-63 -9 -125 -48 -148 -92 -21 -41 -22 -134 -1 -174 38
-73 106 -108 207 -108 116 1 184 38 221 119 23 50 24 134 1 200 -14 42 -21 51
-44 53 -32 4 -33 3 -13 -62 21 -69 19 -134 -5 -174 -20 -33 -71 -62 -109 -62
-21 0 -24 19 -37 213 -3 53 -9 96 -13 96 -3 -1 -30 -5 -59 -9z m21 -137 c4
-38 7 -92 7 -121 0 -52 0 -52 -27 -46 -49 12 -82 34 -98 64 -31 60 -12 124 45
152 60 30 66 26 73 -49z"/>
<path d="M4325 2428 c-58 -54 -65 -157 -16 -227 l21 -30 -32 -3 c-28 -2 -33
-7 -33 -28 0 -24 3 -25 130 -42 197 -25 247 -24 284 8 17 14 36 43 42 63 12
39 9 184 -3 197 -4 3 -19 4 -33 0 -22 -6 -24 -10 -18 -34 15 -53 9 -138 -11
-160 -21 -24 -66 -36 -96 -27 -18 6 -20 15 -20 108 0 119 -16 161 -71 189 -55
29 -103 24 -144 -14z m118 -49 c36 -16 47 -50 47 -141 l0 -81 -46 6 c-34 3
-55 13 -78 36 -28 28 -31 37 -31 92 0 52 3 64 24 80 27 22 49 24 84 8z"/>
<path d="M435 2116 c-155 -49 -235 -151 -222 -285 4 -45 60 -246 72 -259 2 -3
454 137 562 173 9 3 1 38 -28 122 -53 152 -88 202 -174 243 -47 23 -148 26
-210 6z m191 -75 c56 -26 99 -82 128 -169 21 -62 23 -74 10 -79 -8 -3 -111
-36 -229 -73 l-214 -67 -15 46 c-31 92 -38 147 -26 191 33 123 224 206 346
151z"/>
<path d="M4234 2044 c-4 -14 -3 -29 2 -34 5 -4 60 -22 122 -40 129 -38 164
-57 192 -102 22 -37 25 -73 9 -115 -8 -23 -7 -30 7 -40 29 -21 43 -15 55 26
14 47 6 100 -21 134 -27 34 -26 36 17 26 26 -5 40 -4 45 4 23 36 10 43 -195
105 -112 34 -209 62 -215 62 -6 0 -15 -12 -18 -26z"/>
<path d="M4156 1802 l-15 -28 73 -36 c62 -31 74 -41 83 -71 12 -41 27 -34
-132 -62 -122 -22 -119 -21 -138 -61 l-17 -36 27 6 c16 3 78 15 138 26 61 11
119 22 131 25 18 4 25 -9 64 -115 24 -66 46 -120 50 -120 4 0 13 14 20 31 12
28 9 41 -32 152 -25 67 -49 130 -53 140 -5 13 46 -8 175 -73 100 -50 183 -90
185 -88 6 7 25 47 25 52 0 6 -554 286 -565 286 -2 0 -11 -13 -19 -28z"/>
<path d="M859 1526 c-75 -20 -166 -92 -200 -158 -47 -91 -2 -204 98 -244 l52
-20 -94 -68 c-52 -37 -95 -71 -95 -76 0 -4 8 -18 18 -30 l18 -22 199 148 c110
81 226 166 257 189 55 40 57 42 42 63 -14 21 -17 21 -44 7 l-29 -15 6 34 c7
42 -11 97 -44 137 -47 56 -111 75 -184 55z m112 -71 c60 -31 85 -106 55 -164
-34 -64 -171 -149 -221 -137 -68 17 -120 106 -95 165 25 62 147 150 208 151
13 0 36 -7 53 -15z"/>
<path d="M4015 1471 c-16 -4 -40 -13 -51 -19 -36 -19 -102 -101 -120 -148 -16
-42 -16 -45 1 -64 10 -11 21 -20 24 -20 4 0 14 23 24 50 21 58 80 125 120 135
37 10 90 -2 118 -24 l23 -18 -88 -113 c-48 -61 -89 -117 -92 -124 -9 -25 108
-86 164 -86 47 0 109 39 141 87 56 84 39 184 -46 265 -67 64 -152 95 -218 79z
m208 -167 c44 -60 36 -143 -18 -178 -31 -20 -88 -20 -126 -1 l-30 16 57 72
c31 40 64 82 73 94 20 28 22 28 44 -3z"/>
<path d="M1156 1231 c-17 -19 -16 -20 31 -44 98 -50 142 -116 123 -186 -6 -22
-18 -49 -28 -60 -17 -22 -17 -21 -118 66 -147 129 -131 119 -154 92 -100 -116
-82 -246 42 -310 77 -39 169 -16 246 62 131 134 100 294 -75 383 -41 20 -46
20 -67 -3z m-10 -280 l85 -75 -38 -23 c-57 -35 -107 -31 -149 11 -26 26 -34
42 -34 70 0 40 26 99 41 94 5 -2 48 -37 95 -77z"/>
<path d="M3714 1181 c-23 -10 -51 -33 -64 -51 -23 -32 -23 -32 -3 -52 20 -19
20 -19 37 7 21 32 58 47 89 36 13 -5 68 -57 123 -116 l99 -108 -50 -43 -49
-44 20 -20 20 -20 44 45 44 45 38 -37 c31 -30 40 -34 52 -24 14 12 13 18 -5
54 -18 34 -20 46 -11 75 16 51 3 69 -30 42 l-26 -20 -99 105 c-135 146 -157
158 -229 126z"/>
<path d="M3581 1071 c-13 -10 -22 -23 -20 -28 2 -5 62 -87 134 -181 l129 -170
28 19 28 20 -135 180 c-75 98 -136 179 -138 179 -1 0 -13 -9 -26 -19z"/>
<path d="M3483 998 c-13 -6 -23 -14 -23 -18 0 -5 32 -69 70 -144 39 -74 70
-147 70 -161 0 -63 -65 -125 -132 -125 -47 0 -71 28 -153 180 -37 69 -69 127
-71 129 -7 7 -54 -18 -54 -29 0 -22 151 -287 178 -313 38 -36 90 -44 146 -23
49 19 116 85 116 114 0 31 11 33 32 7 16 -20 23 -23 39 -15 10 6 19 15 19 21
0 14 -203 389 -210 388 -3 0 -15 -5 -27 -11z"/>
<path d="M2959 977 c-132 -45 -188 -106 -174 -190 5 -25 18 -52 35 -69 24 -23
37 -28 80 -28 29 0 76 7 106 16 30 8 66 14 81 12 24 -2 28 -8 28 -33 0 -21 -7
-32 -25 -41 -99 -45 -122 -60 -140 -89 -27 -44 -25 -99 5 -151 l26 -44 -35
-14 c-28 -12 -33 -18 -29 -36 4 -14 12 -20 22 -17 24 7 151 39 192 49 87 20
147 94 134 166 -9 55 -39 100 -79 119 -33 15 -34 18 -20 37 23 33 17 72 -13
96 l-28 21 22 17 c65 52 54 150 -21 186 -46 22 -88 20 -167 -7z m140 -55 c33
-26 31 -79 -2 -108 -25 -21 -107 -50 -173 -61 -38 -6 -74 24 -74 61 0 82 183
162 249 108z m60 -355 c24 -20 43 -77 36 -108 -9 -41 -49 -69 -99 -69 -46 0
-55 5 -79 40 -21 31 -22 89 -2 118 28 39 107 49 144 19z"/>
<path d="M1398 816 c-75 -89 -166 -195 -202 -237 l-65 -76 34 -16 33 -16 151
182 c83 100 158 191 167 202 l16 20 -7 -20 c-6 -19 -39 -215 -68 -402 -15
-101 -12 -112 35 -116 19 -2 51 29 162 153 77 85 152 173 169 195 24 32 28 35
23 15 -8 -30 -96 -470 -96 -482 0 -4 14 -15 30 -23 24 -12 31 -13 34 -3 3 7
28 139 56 293 28 154 53 286 55 292 4 10 -41 43 -58 43 -5 0 -276 -304 -319
-358 -16 -19 -28 -30 -28 -25 0 12 68 444 76 483 4 22 -1 29 -28 41 l-33 16
-137 -161z"/>
<path d="M2362 714 c-24 -17 -30 -62 -10 -82 7 -7 24 -12 40 -12 48 0 66 66
26 94 -12 9 -25 16 -28 16 -3 0 -16 -7 -28 -16z"/>
<path d="M3899 641 c-22 -17 -22 -21 -10 -45 16 -29 51 -35 71 -11 16 19 9 45
-16 62 -19 12 -24 11 -45 -6z"/>
</g>
</svg>
